P1
# image tests avec 2 contours
20 20
00000000000000000000
01111111111111111110
01000000000000000010
01000000000000000010
01000000000000000010
01000000000000000010
01000001111110000010
01000001000010000010
01000001000010000010
01000001000010000010
01000001000010000010
01000001000010000010
01000001000010000010
01000001111110000010
01000000000000000010
01000000000000000010
01000000000000000010
01000000000000000010
01111111111111111110
00000000000000000000