P1
# une ligne image = une ligne du fichier
7 9
0000000
0111100
0100010
0100000
0011100
0001000
0011100
0100010
0111000
